Coordinates
version=1
nRows=24
nColumns=24
inDegrees=yes

Units are S.I. units (second, meters, Newtons, ...)
Angles are in degrees.

endheader
time	pelvis_tilt	pelvis_list	pelvis_rotation	pelvis_tx	pelvis_ty	pelvis_tz	hip_flexion_r	hip_adduction_r	hip_rotation_r	knee_angle_r	ankle_angle_r	subtalar_angle_r	mtp_angle_r	hip_flexion_l	hip_adduction_l	hip_rotation_l	knee_angle_l	ankle_angle_l	subtalar_angle_l	mtp_angle_l	lumbar_extension	lumbar_bending	lumbar_rotation
      0.83300000	      1.00366034	      4.87847381	     -0.83572823	     -0.51098031	      1.02270923	      0.27521030	      8.08215771	     -0.16165635	      2.53750971	    -14.82847398	      7.37516665	    -10.45833953	     -0.58418785	     13.92965239	      2.96952539	     -6.30591635	    -65.05352242	     -0.11069111	    -16.37741110	      1.33685758	     -3.18828354	     -4.46657870	      4.40487257
      0.83716667	      0.98982838	      4.98025359	     -1.08499283	     -0.50590396	      1.02330945	      0.27565514	      7.65754853	     -0.26701798	      2.65130623	    -14.52176993	      7.46863421	    -10.27027760	     -0.56610029	     14.44075733	      3.03785515	     -6.49399442	    -64.66203723	      0.17708116	    -16.06145780	      1.28235728	     -3.17686770	     -4.56889614	      4.73757947
      0.84133333	      1.01159484	      5.07205300	     -1.33240282	     -0.50084359	      1.02393051	      0.27609633	      7.18878131	     -0.36543262	      2.75927852	    -14.20010764	      7.55553442	    -10.08476579	     -0.54697793	     14.90332623	      3.08929425	     -6.68195199	    -64.22756716	      0.45572407	    -15.70145051	      1.23965805	     -3.21109884	     -4.66660829	      5.06947774
      0.84550000	      1.00168502	      5.19025850	     -1.59303354	     -0.49580979	      1.02447399	      0.27653965	      6.76842736	     -0.49510873	      2.87790328	    -13.89474279	      7.60085383	     -9.88928028	     -0.53427932	     15.38918001	      3.16885074	     -6.88338364	    -63.73588331	      0.67490451	    -15.37123915	      1.22383560	     -3.21214048	     -4.80776678	      5.28627369
      0.84966667	      1.04002168	      5.26299671	     -1.83809867	     -0.49076709	      1.02501935	      0.27696100	      6.28606551	     -0.58093066	      2.96565595	    -13.58184927	      7.73395922	     -9.70141356	     -0.51278196	     15.81495083	      3.19126006	     -7.06766059	    -63.22917033	      0.96810485	    -14.90055450	      1.20486696	     -3.25176512	     -4.86342360	      5.69020132
      0.85383333	      1.02786266	      5.35062052	     -2.08327010	     -0.48575996	      1.02545106	      0.27738026	      5.86518962	     -0.68246256	      3.07259034	    -13.27240484	      7.84347440	     -9.51197853	     -0.48754914	     16.29181110	      3.23033238	     -7.25039698	    -62.68495521	      1.20333281	    -14.48262033	      1.18821447	     -3.26172935	     -4.96174598	      6.06265914
      0.85800000	      1.04522726	      5.43504067	     -2.33575938	     -0.48076101	      1.02589411	      0.27779246	      5.41662785	     -0.78559114	      3.17954976	    -12.96794634	      7.90663513	     -9.33363897	     -0.46854155	     16.71857713	      3.26187681	     -7.44365099	    -62.08535518	      1.40952818	    -14.05719795	      1.18427431	     -3.28617604	     -5.04773479	      6.32398114
      0.86216667	      1.05368481	      5.48662746	     -2.57107190	     -0.47578900	      1.02624491	      0.27818540	      4.96777225	     -0.85375784	      3.28258955	    -12.64687670	      8.02564984	     -9.16828369	     -0.44131133	     17.15818041	      3.25693551	     -7.61260641	    -61.48673199	      1.65319360	    -13.59302953	      1.18403657	     -3.32263874	     -5.10475223	      6.69880674
      0.86633333	      1.04674257	      5.55679753	     -2.81400031	     -0.47082478	      1.02655144	      0.27858145	      4.54838321	     -0.94329635	      3.39581804	    -12.34630907	      8.12035461	     -9.00736547	     -0.41521416	     17.59596948	      3.26812461	     -7.79559102	    -60.82745708	      1.85290279	    -13.14514910	      1.18986563	     -3.32948416	     -5.18099180	      7.01509390
      0.87050000	      1.06268476	      5.62072518	     -3.05367594	     -0.46587491	      1.02685068	      0.27896155	      4.10324924	     -1.03085452	      3.50221655	    -12.04241243	      8.21350422	     -8.84934166	     -0.38907907	     17.99682480	      3.27442837	     -7.97258843	    -60.13023686	      2.03728829	    -12.70593260	      1.20164959	     -3.36829440	     -5.24836253	      7.32081223
      0.87466667	      1.06864053	      5.68317755	     -3.29309805	     -0.46094041	      1.02709745	      0.27933109	      3.67533635	     -1.11893962	      3.61213440	    -11.74789377	      8.27787158	     -8.70384344	     -0.37025999	     18.39414706	      3.27806694	     -8.14945304	    -59.38951209	      2.18769282	    -12.28435460	      1.21522773	     -3.39107149	     -5.31101098	      7.55567503
      0.87883333	      1.06127675	      5.71312567	     -3.51267635	     -0.45602009	      1.02725760	      0.27968763	      3.24826282	     -1.17024980	      3.72841159	    -11.43361549	      8.39167265	     -8.58272695	     -0.34403042	     18.80453559	      3.24422018	     -8.30451682	    -58.64746183	      2.37951949	    -11.83864987	      1.23814367	     -3.41399962	     -5.34581311	      7.90715990
      0.88300000	      1.06735886	      5.75249656	     -3.73612451	     -0.45111065	      1.02741060	      0.28003395	      2.81438699	     -1.23599806	      3.84611021	    -11.13079032	      8.47842209	     -8.47022573	     -0.31981285	     19.18086979	      3.22361425	     -8.46166604	    -57.84958344	      2.52677067	    -11.43373593	      1.26389025	     -3.44660148	     -5.38702528	      8.19057348
      0.88716667	      1.05530574	      5.78500023	     -3.95103298	     -0.44621419	      1.02748480	      0.28036084	      2.40387852	     -1.29529548	      3.96043872	    -10.83698191	      8.56992917	     -8.36563397	     -0.29745916	     19.56665864	      3.19558836	     -8.61085179	    -57.02372839	      2.66166786	    -11.03688781	      1.29222439	     -3.46231563	     -5.42065719	      8.45799033
      0.89133333	      1.05437739	      5.81245561	     -4.15708680	     -0.44132471	      1.02754422	      0.28067186	      1.97894226	     -1.35240059	      4.07472877	    -10.53901139	      8.65869528	     -8.27095292	     -0.27615937	     19.92482349	      3.16607955	     -8.74964393	    -56.15811121	      2.77933383	    -10.66356344	      1.32283159	     -3.49119429	     -5.45106530	      8.71602157
      0.89550000	      1.05546025	      5.83431154	     -4.35589236	     -0.43643519	      1.02758324	      0.28096796	      1.54790936	     -1.40561601	      4.18574972	    -10.23526931	      8.74096495	     -8.18774577	     -0.25681298	     20.26456942	      3.13549832	     -8.87617857	    -55.25430477	      2.87823202	    -10.30973174	      1.35559350	     -3.52839669	     -5.47488208	      8.96275903
      0.89966667	      1.02811042	      5.84028971	     -4.54039918	     -0.43156643	      1.02751342	      0.28123874	      1.15151060	     -1.44040231	      4.30045418	     -9.94296525	      8.82390386	     -8.11958513	     -0.23788126	     20.62781681	      3.08829209	     -8.98648980	    -54.33334484	      2.97226407	     -9.96558617	      1.39342838	     -3.53723535	     -5.47777145	      9.20369275
      0.90383333	      1.02010291	      5.85279137	     -4.71789168	     -0.42668460	      1.02745889	      0.28148883	      0.73189933	     -1.48774446	      4.40054275	     -9.64837474	      8.91559406	     -8.05320915	     -0.22253031	     20.94817008	      3.05545345	     -9.09002974	    -53.36064300	      3.03610687	     -9.65348739	      1.42917341	     -3.56551837	     -5.49318205	      9.41622503
      0.90800000	      0.99798816	      5.86135557	     -4.88084762	     -0.42180843	      1.02734907	      0.28170945	      0.33295117	     -1.53185408	      4.48377198	     -9.36690346	      8.98267895	     -7.97743512	     -0.21370433	     21.26920073	      3.02661644	     -9.17171348	    -52.35141999	      3.06842609	     -9.36579305	      1.45276742	     -3.57502141	     -5.50371808	      9.55755607
      0.91216667	      0.96672507	      5.85532522	     -5.03163358	     -0.41693251	      1.02717505	      0.28191870	     -0.06211257	     -1.55987276	      4.57066211	     -9.07915602	      9.07388718	     -7.92390265	     -0.20527688	     21.58745330	      2.98276976	     -9.24117260	    -51.32091038	      3.11007112	     -9.07851378	      1.47944617	     -3.58442053	     -5.49728228	      9.74074511
      0.91633333	      0.93073038	      5.84582942	     -5.16644169	     -0.41204634	      1.02697149	      0.28209663	     -0.45568049	     -1.58523254	      4.65177714	     -8.79009120	      9.16196136	     -7.87799954	     -0.19841863	     21.89383983	      2.94296822	     -9.29367194	    -50.25349562	      3.13133485	     -8.81392493	      1.50665171	     -3.58833021	     -5.48505746	      9.91507071
      0.92050000	      0.89212497	      5.82277494	     -5.28709221	     -0.40716093	      1.02672575	      0.28225115	     -0.85026838	     -1.59672393	      4.72644109	     -8.49927082	      9.25033448	     -7.84016745	     -0.19320646	     22.18910300	      2.89477713	     -9.32765601	    -49.15959688	      3.14316781	     -8.56076078	      1.53573669	     -3.59583210	     -5.45753297	     10.08030758
      0.92466667	      0.84960199	      5.79991519	     -5.39507457	     -0.40227083	      1.02644489	      0.28238018	     -1.23783100	     -1.60990026	      4.78727725	     -8.21683192	      9.34185108	     -7.80173211	     -0.18947909	     22.46958083	      2.85569552	     -9.34252026	    -48.02530082	      3.13665272	     -8.32971233	      1.56343876	     -3.59406109	     -5.43050872	     10.21903225
      0.92883333	      0.82732724	      5.77058650	     -5.49395279	     -0.39738389	      1.02616513	      0.28249099	     -1.65704557	     -1.61878398	      4.86157474	     -7.91781931	      9.44546331	     -7.78319766	     -0.18651179	     22.71068417	      2.81749980	     -9.34716727	    -46.85540492	      3.12876584	     -8.11600398	      1.61319848	     -3.63299131	     -5.39257792	     10.40366073
